<?xml version="1.0" encoding="UTF-8" standalone="no"?><svg xmlns="http://www.w3.org/2000/svg" xmlns:xlink="http://www.w3.org/1999/xlink" contentScriptType="application/ecmascript" contentStyleType="text/css" height="728px" preserveAspectRatio="none" style="width:1255px;height:728px;background:#FFFFFF;" version="1.1" viewBox="0 0 1255 728" width="1255px" zoomAndPan="magnify"><defs><filter height="300%" id="f1hoq0ixwn51ui" width="300%" x="-1" y="-1"><feGaussianBlur result="blurOut" stdDeviation="2.0"/><feColorMatrix in="blurOut" result="blurOut2" type="matrix" values="0 0 0 0 0 0 0 0 0 0 0 0 0 0 0 0 0 0 .4 0"/><feOffset dx="4.0" dy="4.0" in="blurOut2" result="blurOut3"/><feBlend in="SourceGraphic" in2="blurOut3" mode="normal"/></filter></defs><g><rect fill="#FFFFFF" filter="url(#f1hoq0ixwn51ui)" height="320.4609" style="stroke:#A80036;stroke-width:1.0;" width="10" x="297.5" y="95.5625"/><rect fill="#FFFFFF" filter="url(#f1hoq0ixwn51ui)" height="233.0625" style="stroke:#A80036;stroke-width:1.0;" width="10" x="539.5" y="153.8281"/><rect fill="#FFFFFF" filter="url(#f1hoq0ixwn51ui)" height="183.7969" style="stroke:#A80036;stroke-width:1.0;" width="10" x="750" y="476.2891"/><rect fill="#FFFFFF" filter="url(#f1hoq0ixwn51ui)" height="366.7266" style="stroke:#000000;stroke-width:2.0;" width="675.5" x="10" y="57.2969"/><rect fill="#FFFFFF" filter="url(#f1hoq0ixwn51ui)" height="230.0625" style="stroke:#000000;stroke-width:2.0;" width="1231" x="10" y="438.0234"/><line style="stroke:#A80036;stroke-width:1.0;stroke-dasharray:5.0,5.0;" x1="66" x2="66" y1="40.2969" y2="685.0859"/><line style="stroke:#A80036;stroke-width:1.0;stroke-dasharray:5.0,5.0;" x1="302.5" x2="302.5" y1="40.2969" y2="685.0859"/><line style="stroke:#A80036;stroke-width:1.0;stroke-dasharray:5.0,5.0;" x1="544.5" x2="544.5" y1="40.2969" y2="685.0859"/><line style="stroke:#A80036;stroke-width:1.0;stroke-dasharray:5.0,5.0;" x1="655.5" x2="655.5" y1="40.2969" y2="685.0859"/><line style="stroke:#A80036;stroke-width:1.0;stroke-dasharray:5.0,5.0;" x1="754.5" x2="754.5" y1="40.2969" y2="685.0859"/><line style="stroke:#A80036;stroke-width:1.0;stroke-dasharray:5.0,5.0;" x1="954.5" x2="954.5" y1="40.2969" y2="685.0859"/><rect fill="#FEFECE" filter="url(#f1hoq0ixwn51ui)" height="30.2969" style="stroke:#A80036;stroke-width:1.5;" width="89" x="20" y="5"/><text fill="#000000" font-family="sans-serif" font-size="14" lengthAdjust="spacing" textLength="75" x="27" y="24.9951">K8s Admin</text><rect fill="#FEFECE" filter="url(#f1hoq0ixwn51ui)" height="30.2969" style="stroke:#A80036;stroke-width:1.5;" width="89" x="20" y="684.0859"/><text fill="#000000" font-family="sans-serif" font-size="14" lengthAdjust="spacing" textLength="75" x="27" y="704.0811">K8s Admin</text><rect fill="#FEFECE" filter="url(#f1hoq0ixwn51ui)" height="30.2969" style="stroke:#A80036;stroke-width:1.5;" width="78" x="261.5" y="5"/><text fill="#000000" font-family="sans-serif" font-size="14" lengthAdjust="spacing" textLength="64" x="268.5" y="24.9951">Gangway</text><rect fill="#FEFECE" filter="url(#f1hoq0ixwn51ui)" height="30.2969" style="stroke:#A80036;stroke-width:1.5;" width="78" x="261.5" y="684.0859"/><text fill="#000000" font-family="sans-serif" font-size="14" lengthAdjust="spacing" textLength="64" x="268.5" y="704.0811">Gangway</text><rect fill="#FEFECE" filter="url(#f1hoq0ixwn51ui)" height="30.2969" style="stroke:#A80036;stroke-width:1.5;" width="114" x="485.5" y="5"/><text fill="#000000" font-family="sans-serif" font-size="14" lengthAdjust="spacing" textLength="100" x="492.5" y="24.9951">OIDC Provider</text><rect fill="#FEFECE" filter="url(#f1hoq0ixwn51ui)" height="30.2969" style="stroke:#A80036;stroke-width:1.5;" width="114" x="485.5" y="684.0859"/><text fill="#000000" font-family="sans-serif" font-size="14" lengthAdjust="spacing" textLength="100" x="492.5" y="704.0811">OIDC Provider</text><rect fill="#FEFECE" filter="url(#f1hoq0ixwn51ui)" height="30.2969" style="stroke:#A80036;stroke-width:1.5;" width="36" x="635.5" y="5"/><text fill="#000000" font-family="sans-serif" font-size="14" lengthAdjust="spacing" textLength="22" x="642.5" y="24.9951">IdP</text><rect fill="#FEFECE" filter="url(#f1hoq0ixwn51ui)" height="30.2969" style="stroke:#A80036;stroke-width:1.5;" width="36" x="635.5" y="684.0859"/><text fill="#000000" font-family="sans-serif" font-size="14" lengthAdjust="spacing" textLength="22" x="642.5" y="704.0811">IdP</text><rect fill="#FEFECE" filter="url(#f1hoq0ixwn51ui)" height="30.2969" style="stroke:#A80036;stroke-width:1.5;" width="135" x="685.5" y="5"/><text fill="#000000" font-family="sans-serif" font-size="14" lengthAdjust="spacing" textLength="121" x="692.5" y="24.9951">Kube OIDC Proxy</text><rect fill="#FEFECE" filter="url(#f1hoq0ixwn51ui)" height="30.2969" style="stroke:#A80036;stroke-width:1.5;" width="135" x="685.5" y="684.0859"/><text fill="#000000" font-family="sans-serif" font-size="14" lengthAdjust="spacing" textLength="121" x="692.5" y="704.0811">Kube OIDC Proxy</text><rect fill="#FEFECE" filter="url(#f1hoq0ixwn51ui)" height="30.2969" style="stroke:#A80036;stroke-width:1.5;" width="117" x="894.5" y="5"/><text fill="#000000" font-family="sans-serif" font-size="14" lengthAdjust="spacing" textLength="103" x="901.5" y="24.9951">K8s API Server</text><rect fill="#FEFECE" filter="url(#f1hoq0ixwn51ui)" height="30.2969" style="stroke:#A80036;stroke-width:1.5;" width="117" x="894.5" y="684.0859"/><text fill="#000000" font-family="sans-serif" font-size="14" lengthAdjust="spacing" textLength="103" x="901.5" y="704.0811">K8s API Server</text><rect fill="#FFFFFF" filter="url(#f1hoq0ixwn51ui)" height="320.4609" style="stroke:#A80036;stroke-width:1.0;" width="10" x="297.5" y="95.5625"/><rect fill="#FFFFFF" filter="url(#f1hoq0ixwn51ui)" height="233.0625" style="stroke:#A80036;stroke-width:1.0;" width="10" x="539.5" y="153.8281"/><rect fill="#FFFFFF" filter="url(#f1hoq0ixwn51ui)" height="183.7969" style="stroke:#A80036;stroke-width:1.0;" width="10" x="750" y="476.2891"/><path d="M10,57.2969 L131,57.2969 L131,64.2969 L121,74.2969 L10,74.2969 L10,57.2969 " fill="#EEEEEE" style="stroke:#000000;stroke-width:1.0;"/><rect fill="none" height="366.7266" style="stroke:#000000;stroke-width:2.0;" width="675.5" x="10" y="57.2969"/><text fill="#000000" font-family="sans-serif" font-size="13" font-weight="bold" lengthAdjust="spacing" textLength="76" x="25" y="70.3638">Auth Flow</text><polygon fill="#A80036" points="285.5,91.5625,295.5,95.5625,285.5,99.5625,289.5,95.5625" style="stroke:#A80036;stroke-width:1.0;"/><line style="stroke:#A80036;stroke-width:1.0;" x1="66.5" x2="291.5" y1="95.5625" y2="95.5625"/><text fill="#000000" font-family="sans-serif" font-size="13" lengthAdjust="spacing" textLength="91" x="73.5" y="90.4966">Login Request</text><polygon fill="#A80036" points="77.5,120.6953,67.5,124.6953,77.5,128.6953,73.5,124.6953" style="stroke:#A80036;stroke-width:1.0;"/><line style="stroke:#A80036;stroke-width:1.0;stroke-dasharray:2.0,2.0;" x1="71.5" x2="296.5" y1="124.6953" y2="124.6953"/><text fill="#000000" font-family="sans-serif" font-size="13" lengthAdjust="spacing" textLength="173" x="83.5" y="119.6294">Redirect to "OIDC Provider"</text><polygon fill="#A80036" points="527.5,149.8281,537.5,153.8281,527.5,157.8281,531.5,153.8281" style="stroke:#A80036;stroke-width:1.0;"/><line style="stroke:#A80036;stroke-width:1.0;" x1="66.5" x2="533.5" y1="153.8281" y2="153.8281"/><text fill="#000000" font-family="sans-serif" font-size="13" lengthAdjust="spacing" textLength="123" x="73.5" y="148.7622">Request login page</text><polygon fill="#A80036" points="77.5,178.9609,67.5,182.9609,77.5,186.9609,73.5,182.9609" style="stroke:#A80036;stroke-width:1.0;"/><line style="stroke:#A80036;stroke-width:1.0;stroke-dasharray:2.0,2.0;" x1="71.5" x2="538.5" y1="182.9609" y2="182.9609"/><text fill="#000000" font-family="sans-serif" font-size="13" lengthAdjust="spacing" textLength="71" x="83.5" y="177.895">Login Form</text><polygon fill="#A80036" points="527.5,208.0938,537.5,212.0938,527.5,216.0938,531.5,212.0938" style="stroke:#A80036;stroke-width:1.0;"/><line style="stroke:#A80036;stroke-width:1.0;" x1="66.5" x2="533.5" y1="212.0938" y2="212.0938"/><text fill="#000000" font-family="sans-serif" font-size="13" lengthAdjust="spacing" textLength="119" x="73.5" y="207.0278">Submit credentials</text><polygon fill="#A80036" points="643.5,237.2266,653.5,241.2266,643.5,245.2266,647.5,241.2266" style="stroke:#A80036;stroke-width:1.0;"/><line style="stroke:#A80036;stroke-width:1.0;" x1="549.5" x2="649.5" y1="241.2266" y2="241.2266"/><text fill="#000000" font-family="sans-serif" font-size="13" lengthAdjust="spacing" textLength="82" x="556.5" y="236.1606">Authenticate</text><polygon fill="#A80036" points="560.5,266.3594,550.5,270.3594,560.5,274.3594,556.5,270.3594" style="stroke:#A80036;stroke-width:1.0;"/><line style="stroke:#A80036;stroke-width:1.0;stroke-dasharray:2.0,2.0;" x1="554.5" x2="654.5" y1="270.3594" y2="270.3594"/><text fill="#000000" font-family="sans-serif" font-size="13" lengthAdjust="spacing" textLength="73" x="566.5" y="265.2935">Auth Token</text><polygon fill="#A80036" points="77.5,295.4922,67.5,299.4922,77.5,303.4922,73.5,299.4922" style="stroke:#A80036;stroke-width:1.0;"/><line style="stroke:#A80036;stroke-width:1.0;stroke-dasharray:2.0,2.0;" x1="71.5" x2="538.5" y1="299.4922" y2="299.4922"/><text fill="#000000" font-family="sans-serif" font-size="13" lengthAdjust="spacing" textLength="249" x="83.5" y="294.4263">Redirect to Gangway with access code</text><polygon fill="#A80036" points="285.5,324.625,295.5,328.625,285.5,332.625,289.5,328.625" style="stroke:#A80036;stroke-width:1.0;"/><line style="stroke:#A80036;stroke-width:1.0;" x1="66.5" x2="291.5" y1="328.625" y2="328.625"/><text fill="#000000" font-family="sans-serif" font-size="13" lengthAdjust="spacing" textLength="207" x="73.5" y="323.5591">Follow redirect with access code</text><polygon fill="#A80036" points="527.5,353.7578,537.5,357.7578,527.5,361.7578,531.5,357.7578" style="stroke:#A80036;stroke-width:1.0;"/><line style="stroke:#A80036;stroke-width:1.0;" x1="307.5" x2="533.5" y1="357.7578" y2="357.7578"/><text fill="#000000" font-family="sans-serif" font-size="13" lengthAdjust="spacing" textLength="208" x="314.5" y="352.6919">Exchange access code for token</text><polygon fill="#A80036" points="318.5,382.8906,308.5,386.8906,318.5,390.8906,314.5,386.8906" style="stroke:#A80036;stroke-width:1.0;"/><line style="stroke:#A80036;stroke-width:1.0;stroke-dasharray:2.0,2.0;" x1="312.5" x2="543.5" y1="386.8906" y2="386.8906"/><text fill="#000000" font-family="sans-serif" font-size="13" lengthAdjust="spacing" textLength="51" x="324.5" y="381.8247">Id token</text><polygon fill="#A80036" points="77.5,412.0234,67.5,416.0234,77.5,420.0234,73.5,416.0234" style="stroke:#A80036;stroke-width:1.0;"/><line style="stroke:#A80036;stroke-width:1.0;stroke-dasharray:2.0,2.0;" x1="71.5" x2="301.5" y1="416.0234" y2="416.0234"/><text fill="#000000" font-family="sans-serif" font-size="13" lengthAdjust="spacing" textLength="142" x="83.5" y="410.9575">Kubeconfig with token</text><path d="M10,438.0234 L200,438.0234 L200,445.0234 L190,455.0234 L10,455.0234 L10,438.0234 " fill="#EEEEEE" style="stroke:#000000;stroke-width:1.0;"/><rect fill="none" height="230.0625" style="stroke:#000000;stroke-width:2.0;" width="1231" x="10" y="438.0234"/><text fill="#000000" font-family="sans-serif" font-size="13" font-weight="bold" lengthAdjust="spacing" textLength="145" x="25" y="451.0903">K8s API Commands</text><polygon fill="#A80036" points="738,472.2891,748,476.2891,738,480.2891,742,476.2891" style="stroke:#A80036;stroke-width:1.0;"/><line style="stroke:#A80036;stroke-width:1.0;" x1="66.5" x2="744" y1="476.2891" y2="476.2891"/><text fill="#000000" font-family="sans-serif" font-size="13" lengthAdjust="spacing" textLength="78" x="73.5" y="471.2231">kubectl cmd</text><line style="stroke:#A80036;stroke-width:1.0;" x1="760" x2="802" y1="505.4219" y2="505.4219"/><line style="stroke:#A80036;stroke-width:1.0;" x1="802" x2="802" y1="505.4219" y2="518.4219"/><line style="stroke:#A80036;stroke-width:1.0;" x1="761" x2="802" y1="518.4219" y2="518.4219"/><polygon fill="#A80036" points="771,514.4219,761,518.4219,771,522.4219,767,518.4219" style="stroke:#A80036;stroke-width:1.0;"/><text fill="#000000" font-family="sans-serif" font-size="13" lengthAdjust="spacing" textLength="176" x="767" y="500.356">verify token with public key</text><line style="stroke:#A80036;stroke-width:1.0;" x1="760" x2="802" y1="553.6211" y2="553.6211"/><line style="stroke:#A80036;stroke-width:1.0;" x1="802" x2="802" y1="553.6211" y2="566.6211"/><line style="stroke:#A80036;stroke-width:1.0;" x1="761" x2="802" y1="566.6211" y2="566.6211"/><polygon fill="#A80036" points="771,562.6211,761,566.6211,771,570.6211,767,566.6211" style="stroke:#A80036;stroke-width:1.0;"/><text fill="#000000" font-family="sans-serif" font-size="13" lengthAdjust="spacing" textLength="94" x="767" y="548.5552">update header</text><path d="M873,531.4219 L873,571.4219 L1217,571.4219 L1217,541.4219 L1207,531.4219 L873,531.4219 " fill="#FBFB77" filter="url(#f1hoq0ixwn51ui)" style="stroke:#A80036;stroke-width:1.0;"/><path d="M1207,531.4219 L1207,541.4219 L1217,541.4219 L1207,531.4219 " fill="#FBFB77" style="stroke:#A80036;stroke-width:1.0;"/><ellipse cx="884.5" cy="544.0547" fill="#000000" rx="2.5" ry="2.5" style="stroke:#000000;stroke-width:0.0;"/><text fill="#000000" font-family="sans-serif" font-size="13" lengthAdjust="spacing" textLength="135" x="892" y="548.4888">remove OIDC header</text><ellipse cx="884.5" cy="559.1875" fill="#000000" rx="2.5" ry="2.5" style="stroke:#000000;stroke-width:0.0;"/><text fill="#000000" font-family="sans-serif" font-size="13" lengthAdjust="spacing" textLength="310" x="892" y="563.6216">set impersonation header using username claim</text><polygon fill="#A80036" points="943,597.8203,953,601.8203,943,605.8203,947,601.8203" style="stroke:#A80036;stroke-width:1.0;"/><line style="stroke:#A80036;stroke-width:1.0;" x1="760" x2="949" y1="601.8203" y2="601.8203"/><text fill="#000000" font-family="sans-serif" font-size="13" lengthAdjust="spacing" textLength="78" x="767" y="596.7544">kubectl cmd</text><polygon fill="#A80036" points="771,626.9531,761,630.9531,771,634.9531,767,630.9531" style="stroke:#A80036;stroke-width:1.0;"/><line style="stroke:#A80036;stroke-width:1.0;stroke-dasharray:2.0,2.0;" x1="765" x2="954" y1="630.9531" y2="630.9531"/><text fill="#000000" font-family="sans-serif" font-size="13" lengthAdjust="spacing" textLength="83" x="777" y="625.8872">API response</text><polygon fill="#A80036" points="77.5,656.0859,67.5,660.0859,77.5,664.0859,73.5,660.0859" style="stroke:#A80036;stroke-width:1.0;"/><line style="stroke:#A80036;stroke-width:1.0;stroke-dasharray:2.0,2.0;" x1="71.5" x2="754" y1="660.0859" y2="660.0859"/><text fill="#000000" font-family="sans-serif" font-size="13" lengthAdjust="spacing" textLength="83" x="83.5" y="655.02">API response</text><!--MD5=[d4405eafedeaa220f19fafa0ad6a205a]
@startuml
group Auth Flow
    "K8s Admin"->Gangway: Login Request
    activate Gangway 
    Gangway - ->"K8s Admin": Redirect to "OIDC Provider"
    "K8s Admin" -> "OIDC Provider":Request login page
    activate "OIDC Provider" 
    "OIDC Provider" - -> "K8s Admin": Login Form
    "K8s Admin"-> "OIDC Provider": Submit credentials
    "OIDC Provider" -> IdP: Authenticate
    IdP - -> "OIDC Provider": Auth Token
    "OIDC Provider" - -> "K8s Admin": Redirect to Gangway with access code
    "K8s Admin" -> Gangway: Follow redirect with access code
    Gangway -> "OIDC Provider": Exchange access code for token
    "OIDC Provider" - -> Gangway: Id token
    deactivate "OIDC Provider"
    Gangway - -> "K8s Admin": Kubeconfig with token
    deactivate Gangway
end
group K8s API Commands
    "K8s Admin"->"Kube OIDC Proxy": kubectl cmd
    activate "Kube OIDC Proxy"
    "Kube OIDC Proxy" -> "Kube OIDC Proxy": verify token with public key
    "Kube OIDC Proxy" -> "Kube OIDC Proxy": update header
    note right
        * remove OIDC header 
        * set impersonation header using username claim
    end note
    "Kube OIDC Proxy" -> "K8s API Server": kubectl cmd
    "K8s API Server" - -> "Kube OIDC Proxy": API response
    "Kube OIDC Proxy" - -> "K8s Admin": API response
    deactivate "Kube OIDC Proxy"
end
@enduml

PlantUML version 1.2021.9beta2(Unknown compile time)
(GPL source distribution)
Java Runtime: Java(TM) SE Runtime Environment
JVM: Java HotSpot(TM) 64-Bit Server VM
Default Encoding: UTF-8
Language: en
Country: US
--></g></svg>