<?xml version="1.0" encoding="UTF-8" standalone="no"?><svg xmlns="http://www.w3.org/2000/svg" xmlns:xlink="http://www.w3.org/1999/xlink" contentScriptType="application/ecmascript" contentStyleType="text/css" height="569px" preserveAspectRatio="none" style="width:930px;height:569px;background:#FFFFFF;" version="1.1" viewBox="0 0 930 569" width="930px" zoomAndPan="magnify"><defs><filter height="300%" id="f11ze4t3fea57f" width="300%" x="-1" y="-1"><feGaussianBlur result="blurOut" stdDeviation="2.0"/><feColorMatrix in="blurOut" result="blurOut2" type="matrix" values="0 0 0 0 0 0 0 0 0 0 0 0 0 0 0 0 0 0 .4 0"/><feOffset dx="4.0" dy="4.0" in="blurOut2" result="blurOut3"/><feBlend in="SourceGraphic" in2="blurOut3" mode="normal"/></filter></defs><g><line style="stroke:#A80036;stroke-width:1.0;stroke-dasharray:5.0,5.0;" x1="51" x2="51" y1="40.2969" y2="526.4219"/><line style="stroke:#A80036;stroke-width:1.0;stroke-dasharray:5.0,5.0;" x1="282.5" x2="282.5" y1="40.2969" y2="526.4219"/><line style="stroke:#A80036;stroke-width:1.0;stroke-dasharray:5.0,5.0;" x1="514.5" x2="514.5" y1="40.2969" y2="526.4219"/><line style="stroke:#A80036;stroke-width:1.0;stroke-dasharray:5.0,5.0;" x1="620.5" x2="620.5" y1="40.2969" y2="526.4219"/><line style="stroke:#A80036;stroke-width:1.0;stroke-dasharray:5.0,5.0;" x1="719.5" x2="719.5" y1="40.2969" y2="526.4219"/><line style="stroke:#A80036;stroke-width:1.0;stroke-dasharray:5.0,5.0;" x1="859.5" x2="859.5" y1="40.2969" y2="526.4219"/><rect fill="#FEFECE" filter="url(#f11ze4t3fea57f)" height="30.2969" style="stroke:#A80036;stroke-width:1.5;" width="89" x="5" y="5"/><text fill="#000000" font-family="sans-serif" font-size="14" lengthAdjust="spacing" textLength="75" x="12" y="24.9951">K8s Admin</text><rect fill="#FEFECE" filter="url(#f11ze4t3fea57f)" height="30.2969" style="stroke:#A80036;stroke-width:1.5;" width="89" x="5" y="525.4219"/><text fill="#000000" font-family="sans-serif" font-size="14" lengthAdjust="spacing" textLength="75" x="12" y="545.417">K8s Admin</text><rect fill="#FEFECE" filter="url(#f11ze4t3fea57f)" height="30.2969" style="stroke:#A80036;stroke-width:1.5;" width="78" x="241.5" y="5"/><text fill="#000000" font-family="sans-serif" font-size="14" lengthAdjust="spacing" textLength="64" x="248.5" y="24.9951">Gangway</text><rect fill="#FEFECE" filter="url(#f11ze4t3fea57f)" height="30.2969" style="stroke:#A80036;stroke-width:1.5;" width="78" x="241.5" y="525.4219"/><text fill="#000000" font-family="sans-serif" font-size="14" lengthAdjust="spacing" textLength="64" x="248.5" y="545.417">Gangway</text><rect fill="#FEFECE" filter="url(#f11ze4t3fea57f)" height="30.2969" style="stroke:#A80036;stroke-width:1.5;" width="114" x="455.5" y="5"/><text fill="#000000" font-family="sans-serif" font-size="14" lengthAdjust="spacing" textLength="100" x="462.5" y="24.9951">OIDC Provider</text><rect fill="#FEFECE" filter="url(#f11ze4t3fea57f)" height="30.2969" style="stroke:#A80036;stroke-width:1.5;" width="114" x="455.5" y="525.4219"/><text fill="#000000" font-family="sans-serif" font-size="14" lengthAdjust="spacing" textLength="100" x="462.5" y="545.417">OIDC Provider</text><rect fill="#FEFECE" filter="url(#f11ze4t3fea57f)" height="30.2969" style="stroke:#A80036;stroke-width:1.5;" width="36" x="600.5" y="5"/><text fill="#000000" font-family="sans-serif" font-size="14" lengthAdjust="spacing" textLength="22" x="607.5" y="24.9951">IdP</text><rect fill="#FEFECE" filter="url(#f11ze4t3fea57f)" height="30.2969" style="stroke:#A80036;stroke-width:1.5;" width="36" x="600.5" y="525.4219"/><text fill="#000000" font-family="sans-serif" font-size="14" lengthAdjust="spacing" textLength="22" x="607.5" y="545.417">IdP</text><rect fill="#FEFECE" filter="url(#f11ze4t3fea57f)" height="30.2969" style="stroke:#A80036;stroke-width:1.5;" width="135" x="650.5" y="5"/><text fill="#000000" font-family="sans-serif" font-size="14" lengthAdjust="spacing" textLength="121" x="657.5" y="24.9951">Kube OIDC Proxy</text><rect fill="#FEFECE" filter="url(#f11ze4t3fea57f)" height="30.2969" style="stroke:#A80036;stroke-width:1.5;" width="135" x="650.5" y="525.4219"/><text fill="#000000" font-family="sans-serif" font-size="14" lengthAdjust="spacing" textLength="121" x="657.5" y="545.417">Kube OIDC Proxy</text><rect fill="#FEFECE" filter="url(#f11ze4t3fea57f)" height="30.2969" style="stroke:#A80036;stroke-width:1.5;" width="117" x="799.5" y="5"/><text fill="#000000" font-family="sans-serif" font-size="14" lengthAdjust="spacing" textLength="103" x="806.5" y="24.9951">K8s API Server</text><rect fill="#FEFECE" filter="url(#f11ze4t3fea57f)" height="30.2969" style="stroke:#A80036;stroke-width:1.5;" width="117" x="799.5" y="525.4219"/><text fill="#000000" font-family="sans-serif" font-size="14" lengthAdjust="spacing" textLength="103" x="806.5" y="545.417">K8s API Server</text><polygon fill="#A80036" points="270.5,67.4297,280.5,71.4297,270.5,75.4297,274.5,71.4297" style="stroke:#A80036;stroke-width:1.0;"/><line style="stroke:#A80036;stroke-width:1.0;" x1="51.5" x2="276.5" y1="71.4297" y2="71.4297"/><text fill="#000000" font-family="sans-serif" font-size="13" lengthAdjust="spacing" textLength="91" x="58.5" y="66.3638">Login Request</text><polygon fill="#A80036" points="62.5,96.5625,52.5,100.5625,62.5,104.5625,58.5,100.5625" style="stroke:#A80036;stroke-width:1.0;"/><line style="stroke:#A80036;stroke-width:1.0;stroke-dasharray:2.0,2.0;" x1="56.5" x2="281.5" y1="100.5625" y2="100.5625"/><text fill="#000000" font-family="sans-serif" font-size="13" lengthAdjust="spacing" textLength="173" x="68.5" y="95.4966">Redirect to "OIDC Provider"</text><polygon fill="#A80036" points="502.5,125.6953,512.5,129.6953,502.5,133.6953,506.5,129.6953" style="stroke:#A80036;stroke-width:1.0;"/><line style="stroke:#A80036;stroke-width:1.0;" x1="51.5" x2="508.5" y1="129.6953" y2="129.6953"/><text fill="#000000" font-family="sans-serif" font-size="13" lengthAdjust="spacing" textLength="123" x="58.5" y="124.6294">Request login page</text><polygon fill="#A80036" points="62.5,154.8281,52.5,158.8281,62.5,162.8281,58.5,158.8281" style="stroke:#A80036;stroke-width:1.0;"/><line style="stroke:#A80036;stroke-width:1.0;stroke-dasharray:2.0,2.0;" x1="56.5" x2="513.5" y1="158.8281" y2="158.8281"/><text fill="#000000" font-family="sans-serif" font-size="13" lengthAdjust="spacing" textLength="71" x="68.5" y="153.7622">Login Form</text><polygon fill="#A80036" points="502.5,183.9609,512.5,187.9609,502.5,191.9609,506.5,187.9609" style="stroke:#A80036;stroke-width:1.0;"/><line style="stroke:#A80036;stroke-width:1.0;" x1="51.5" x2="508.5" y1="187.9609" y2="187.9609"/><text fill="#000000" font-family="sans-serif" font-size="13" lengthAdjust="spacing" textLength="119" x="58.5" y="182.895">Submit credentials</text><polygon fill="#A80036" points="608.5,213.0938,618.5,217.0938,608.5,221.0938,612.5,217.0938" style="stroke:#A80036;stroke-width:1.0;"/><line style="stroke:#A80036;stroke-width:1.0;" x1="514.5" x2="614.5" y1="217.0938" y2="217.0938"/><text fill="#000000" font-family="sans-serif" font-size="13" lengthAdjust="spacing" textLength="82" x="521.5" y="212.0278">Authenticate</text><polygon fill="#A80036" points="525.5,242.2266,515.5,246.2266,525.5,250.2266,521.5,246.2266" style="stroke:#A80036;stroke-width:1.0;"/><line style="stroke:#A80036;stroke-width:1.0;stroke-dasharray:2.0,2.0;" x1="519.5" x2="619.5" y1="246.2266" y2="246.2266"/><text fill="#000000" font-family="sans-serif" font-size="13" lengthAdjust="spacing" textLength="73" x="531.5" y="241.1606">Auth Token</text><polygon fill="#A80036" points="62.5,271.3594,52.5,275.3594,62.5,279.3594,58.5,275.3594" style="stroke:#A80036;stroke-width:1.0;"/><line style="stroke:#A80036;stroke-width:1.0;stroke-dasharray:2.0,2.0;" x1="56.5" x2="513.5" y1="275.3594" y2="275.3594"/><text fill="#000000" font-family="sans-serif" font-size="13" lengthAdjust="spacing" textLength="249" x="68.5" y="270.2935">Redirect to Gangway with access code</text><polygon fill="#A80036" points="270.5,300.4922,280.5,304.4922,270.5,308.4922,274.5,304.4922" style="stroke:#A80036;stroke-width:1.0;"/><line style="stroke:#A80036;stroke-width:1.0;" x1="51.5" x2="276.5" y1="304.4922" y2="304.4922"/><text fill="#000000" font-family="sans-serif" font-size="13" lengthAdjust="spacing" textLength="207" x="58.5" y="299.4263">Follow redirect with access code</text><polygon fill="#A80036" points="502.5,329.625,512.5,333.625,502.5,337.625,506.5,333.625" style="stroke:#A80036;stroke-width:1.0;"/><line style="stroke:#A80036;stroke-width:1.0;" x1="282.5" x2="508.5" y1="333.625" y2="333.625"/><text fill="#000000" font-family="sans-serif" font-size="13" lengthAdjust="spacing" textLength="208" x="289.5" y="328.5591">Exchange access code for token</text><polygon fill="#A80036" points="293.5,358.7578,283.5,362.7578,293.5,366.7578,289.5,362.7578" style="stroke:#A80036;stroke-width:1.0;"/><line style="stroke:#A80036;stroke-width:1.0;stroke-dasharray:2.0,2.0;" x1="287.5" x2="513.5" y1="362.7578" y2="362.7578"/><text fill="#000000" font-family="sans-serif" font-size="13" lengthAdjust="spacing" textLength="51" x="299.5" y="357.6919">Id token</text><polygon fill="#A80036" points="62.5,387.8906,52.5,391.8906,62.5,395.8906,58.5,391.8906" style="stroke:#A80036;stroke-width:1.0;"/><line style="stroke:#A80036;stroke-width:1.0;stroke-dasharray:2.0,2.0;" x1="56.5" x2="281.5" y1="391.8906" y2="391.8906"/><text fill="#000000" font-family="sans-serif" font-size="13" lengthAdjust="spacing" textLength="142" x="68.5" y="386.8247">Kubeconfig with token</text><polygon fill="#A80036" points="708,417.0234,718,421.0234,708,425.0234,712,421.0234" style="stroke:#A80036;stroke-width:1.0;"/><line style="stroke:#A80036;stroke-width:1.0;" x1="51.5" x2="714" y1="421.0234" y2="421.0234"/><text fill="#000000" font-family="sans-serif" font-size="13" lengthAdjust="spacing" textLength="78" x="58.5" y="415.9575">kubectl cmd</text><polygon fill="#A80036" points="848,446.1563,858,450.1563,848,454.1563,852,450.1563" style="stroke:#A80036;stroke-width:1.0;"/><line style="stroke:#A80036;stroke-width:1.0;" x1="720" x2="854" y1="450.1563" y2="450.1563"/><text fill="#000000" font-family="sans-serif" font-size="13" lengthAdjust="spacing" textLength="78" x="727" y="445.0903">kubectl cmd</text><polygon fill="#A80036" points="731,475.2891,721,479.2891,731,483.2891,727,479.2891" style="stroke:#A80036;stroke-width:1.0;"/><line style="stroke:#A80036;stroke-width:1.0;stroke-dasharray:2.0,2.0;" x1="725" x2="859" y1="479.2891" y2="479.2891"/><text fill="#000000" font-family="sans-serif" font-size="13" lengthAdjust="spacing" textLength="83" x="737" y="474.2231">API response</text><polygon fill="#A80036" points="62.5,504.4219,52.5,508.4219,62.5,512.4219,58.5,508.4219" style="stroke:#A80036;stroke-width:1.0;"/><line style="stroke:#A80036;stroke-width:1.0;stroke-dasharray:2.0,2.0;" x1="56.5" x2="719" y1="508.4219" y2="508.4219"/><text fill="#000000" font-family="sans-serif" font-size="13" lengthAdjust="spacing" textLength="83" x="68.5" y="503.356">API response</text><!--MD5=[bdf40ecffe39e396c5684c090b084d66]
@startuml
"K8s Admin"->Gangway: Login Request
Gangway - ->"K8s Admin": Redirect to "OIDC Provider"
"K8s Admin" -> "OIDC Provider":Request login page
"OIDC Provider" - -> "K8s Admin": Login Form
"K8s Admin"-> "OIDC Provider": Submit credentials
"OIDC Provider" -> IdP: Authenticate
IdP - -> "OIDC Provider": Auth Token
"OIDC Provider" - -> "K8s Admin": Redirect to Gangway with access code
"K8s Admin" -> Gangway: Follow redirect with access code
Gangway -> "OIDC Provider": Exchange access code for token
"OIDC Provider" - -> Gangway: Id token
Gangway - -> "K8s Admin": Kubeconfig with token
"K8s Admin"->"Kube OIDC Proxy": kubectl cmd
"Kube OIDC Proxy" -> "K8s API Server": kubectl cmd
"K8s API Server" - -> "Kube OIDC Proxy": API response
"Kube OIDC Proxy" - -> "K8s Admin": API response
@enduml

PlantUML version 1.2021.9beta2(Unknown compile time)
(GPL source distribution)
Java Runtime: Java(TM) SE Runtime Environment
JVM: Java HotSpot(TM) 64-Bit Server VM
Default Encoding: UTF-8
Language: en
Country: US
--></g></svg>